<svg width="14" height="14" viewBox="0 0 14 14" fill="none" xmlns="http://www.w3.org/2000/svg">
<circle cx="7" cy="7" r="6.5" stroke="#C4C4C4"/>
<mask id="path-2-inside-1" fill="white">
<path d="M9.82843 9.82843C9.26902 10.3878 8.55629 10.7688 7.78036 10.9231C7.00444 11.0775 6.20017 10.9983 5.46927 10.6955C4.73836 10.3928 4.11365 9.88008 3.67412 9.22228C3.2346 8.56448 3 7.79113 3 7C3 6.20887 3.2346 5.43552 3.67412 4.77772C4.11365 4.11992 4.73836 3.60723 5.46927 3.30448C6.20017 3.00173 7.00444 2.92252 7.78036 3.07686C8.55628 3.2312 9.26902 3.61216 9.82843 4.17157L9.35226 4.64774C8.88702 4.18251 8.29428 3.86568 7.64899 3.73733C7.00369 3.60897 6.33482 3.67485 5.72697 3.92663C5.11911 4.17841 4.59957 4.60479 4.23404 5.15184C3.86851 5.6989 3.67341 6.34206 3.67341 7C3.67341 7.65794 3.86851 8.3011 4.23404 8.84816C4.59957 9.39521 5.11911 9.82159 5.72697 10.0734C6.33482 10.3252 7.00369 10.391 7.64899 10.2627C8.29428 10.1343 8.88702 9.81749 9.35226 9.35226L9.82843 9.82843Z"/>
</mask>
<path d="M9.82843 9.82843C9.26902 10.3878 8.55629 10.7688 7.78036 10.9231C7.00444 11.0775 6.20017 10.9983 5.46927 10.6955C4.73836 10.3928 4.11365 9.88008 3.67412 9.22228C3.2346 8.56448 3 7.79113 3 7C3 6.20887 3.2346 5.43552 3.67412 4.77772C4.11365 4.11992 4.73836 3.60723 5.46927 3.30448C6.20017 3.00173 7.00444 2.92252 7.78036 3.07686C8.55628 3.2312 9.26902 3.61216 9.82843 4.17157L9.35226 4.64774C8.88702 4.18251 8.29428 3.86568 7.64899 3.73733C7.00369 3.60897 6.33482 3.67485 5.72697 3.92663C5.11911 4.17841 4.59957 4.60479 4.23404 5.15184C3.86851 5.6989 3.67341 6.34206 3.67341 7C3.67341 7.65794 3.86851 8.3011 4.23404 8.84816C4.59957 9.39521 5.11911 9.82159 5.72697 10.0734C6.33482 10.3252 7.00369 10.391 7.64899 10.2627C8.29428 10.1343 8.88702 9.81749 9.35226 9.35226L9.82843 9.82843Z" stroke="#C4C4C4" stroke-width="2" mask="url(#path-2-inside-1)"/>
</svg>
