<svg width="35" height="34" viewBox="0 0 35 34" fill="none" xmlns="http://www.w3.org/2000/svg">
<path d="M34.4171 9.99612C34.3375 8.18957 34.0453 6.94758 33.6268 5.87137C33.1951 4.72901 32.5309 3.70626 31.6607 2.85604C30.8105 1.99258 29.781 1.32164 28.6519 0.896662C27.5694 0.478168 26.3339 0.186026 24.5274 0.106375C22.7073 0.0199777 22.1295 0 17.5134 0C12.8972 0 12.3194 0.0199777 10.5061 0.0996291C8.69958 0.179281 7.45758 0.471682 6.38164 0.889917C5.23902 1.32164 4.21627 1.98584 3.36604 2.85604C2.50259 3.70626 1.83191 4.73576 1.40667 5.86489C0.988178 6.94758 0.696036 8.18282 0.616385 9.98938C0.529987 11.8094 0.51001 12.3872 0.51001 17.0034C0.51001 21.6195 0.529987 22.1973 0.609639 24.0106C0.68929 25.8172 0.981691 27.0592 1.40019 28.1354C1.83191 29.2777 2.50259 30.3005 3.36604 31.1507C4.21627 32.0142 5.24577 32.6851 6.3749 33.1101C7.45758 33.5286 8.69283 33.8207 10.4996 33.9004C12.3127 33.9803 12.8907 34 17.5069 34C22.123 34 22.7008 33.9803 24.5141 33.9004C26.3207 33.8207 27.5627 33.5286 28.6386 33.1101C30.9236 32.2267 32.7302 30.4201 33.6136 28.1354C34.0318 27.0527 34.3242 25.8172 34.4039 24.0106C34.4835 22.1973 34.5035 21.6195 34.5035 17.0034C34.5035 12.3872 34.4968 11.8094 34.4171 9.99612ZM31.3553 23.8778C31.2822 25.5383 31.0033 26.4349 30.7708 27.0327C30.1995 28.5139 29.0239 29.6895 27.5427 30.2608C26.9449 30.4933 26.0418 30.7722 24.3878 30.8451C22.5945 30.925 22.0566 30.9447 17.5201 30.9447C12.9836 30.9447 12.439 30.925 10.6522 30.8451C8.99172 30.7722 8.09506 30.4933 7.49728 30.2608C6.76018 29.9884 6.08924 29.5566 5.54465 28.9921C4.98009 28.4407 4.54836 27.7766 4.27594 27.0395C4.04347 26.4417 3.76456 25.5383 3.69166 23.8845C3.61174 22.0912 3.59203 21.5531 3.59203 17.0166C3.59203 12.4801 3.61174 11.9355 3.69166 10.1489C3.76456 8.48846 4.04347 7.59179 4.27594 6.99402C4.54836 6.25666 4.98009 5.58598 5.5514 5.04113C6.10247 4.47657 6.76667 4.04484 7.50403 3.77268C8.1018 3.54021 9.00521 3.2613 10.6589 3.18813C12.4523 3.10848 12.9904 3.0885 17.5266 3.0885C22.0699 3.0885 22.6077 3.10848 24.3945 3.18813C26.055 3.2613 26.9517 3.54021 27.5495 3.77268C28.2866 4.04484 28.9575 4.47657 29.5021 5.04113C30.0667 5.59246 30.4984 6.25666 30.7708 6.99402C31.0033 7.59179 31.2822 8.49494 31.3553 10.1489C31.435 11.9423 31.455 12.4801 31.455 17.0166C31.455 21.5531 31.435 22.0845 31.3553 23.8778Z" fill="white"/>
<path d="M17.5139 8.26929C12.692 8.26929 8.77979 12.1813 8.77979 17.0034C8.77979 21.8256 12.692 25.7376 17.5139 25.7376C22.3361 25.7376 26.2481 21.8256 26.2481 17.0034C26.2481 12.1813 22.3361 8.26929 17.5139 8.26929ZM17.5139 22.6691C14.3857 22.6691 11.8483 20.1319 11.8483 17.0034C11.8483 13.875 14.3857 11.3378 17.5139 11.3378C20.6424 11.3378 23.1796 13.875 23.1796 17.0034C23.1796 20.1319 20.6424 22.6691 17.5139 22.6691Z" fill="white"/>
<path d="M28.6325 7.92391C28.6325 9.04993 27.7195 9.96294 26.5932 9.96294C25.4672 9.96294 24.5542 9.04993 24.5542 7.92391C24.5542 6.79764 25.4672 5.88489 26.5932 5.88489C27.7195 5.88489 28.6325 6.79764 28.6325 7.92391Z" fill="white"/>
</svg>
