<svg width="109" height="68" viewBox="0 0 109 68" fill="none" xmlns="http://www.w3.org/2000/svg">
<path d="M51.6865 10.3627C51.1033 10.3627 50.6305 10.8354 50.6305 11.4186C50.6305 12.0017 51.1033 12.4745 51.6865 12.4745V10.3627ZM21.1184 56.8232C20.5353 56.8232 20.0625 57.2959 20.0625 57.8791C20.0625 58.4623 20.5353 58.935 21.1184 58.935V56.8232ZM51.6865 12.4745H102.776V10.3627H51.6865V12.4745ZM105.944 15.6423V53.6554H108.056V15.6423H105.944ZM102.776 56.8232H21.1184V58.935H102.776V56.8232ZM105.944 53.6554C105.944 55.4049 104.526 56.8232 102.776 56.8232V58.935C105.692 58.935 108.056 56.5713 108.056 53.6554H105.944ZM102.776 12.4745C104.526 12.4745 105.944 13.8928 105.944 15.6423H108.056C108.056 12.7264 105.692 10.3627 102.776 10.3627V12.4745Z" fill="white"/>
<path d="M9.7243 42.9865L50.6842 -0.380981L29.1729 29.3902L45.9694 25.1707L0 67.8349L29.1729 34.313L9.7243 42.9865Z" fill="#FFFAFA"/>
<path d="M39.9244 21.9953H58.9591L59.3252 29.6092H58.6663C57.7634 26.9736 56.714 25.18 55.5182 24.2283C54.3469 23.2765 52.5898 22.8006 50.2471 22.8006H49.2221V34.6974H50.8694C52.0407 34.6974 53.0169 34.2703 53.7978 33.4162C54.5787 32.5621 55.1156 31.3907 55.4084 29.9021H55.9575V40.7372H55.3352C54.9448 38.907 54.3957 37.6014 53.688 36.8205C53.0047 36.0396 52.0651 35.6491 50.8694 35.6491H49.2221V46.8137H53.7612V47.619H39.9244V46.8137H42.0841V22.8006H39.9244V21.9953ZM61.7337 21.9953H72.8983V22.6908H70.885V46.9235H72.8983V47.619H61.7337V46.9235H63.747V22.6908H61.7337V21.9953ZM97.1115 21.9953L97.4776 31.1833H96.7821C95.7083 27.9376 94.7566 25.7291 93.9269 24.5577C93.0972 23.3619 91.9014 22.764 90.3396 22.764H89.9003V46.8503H93.0118V47.619H79.6508V46.8503H82.7623V22.764H82.2864C80.7246 22.764 79.5166 23.3863 78.6625 24.6309C77.8084 25.8511 76.8688 28.0352 75.8439 31.1833H75.1484L75.5144 21.9953H97.1115Z" fill="#FFFDFD"/>
</svg>
