<svg width="81" height="81" viewBox="0 0 81 81" fill="none" xmlns="http://www.w3.org/2000/svg">
<g clip-path="url(#clip0)">
<path d="M80.6809 60.224C79.7257 57.2274 76.9193 55.4073 74.7336 54.4079C70.2431 52.3551 65.3186 47.989 60.9136 43.0031L61.5708 42.5995C62.1363 42.2522 62.3134 41.512 61.9661 40.9464C61.6187 40.3805 60.8788 40.2041 60.3129 40.5511L59.3281 41.1557C58.7525 40.4658 58.1888 39.7684 57.6388 39.0674L58.6166 38.4319C59.1732 38.0703 59.3311 37.3258 58.9693 36.7692C58.6076 36.2125 57.8628 36.0546 57.3065 36.4164L56.1754 37.1517C55.5419 36.299 54.9322 35.4471 54.3502 34.6029L55.1898 34.0815C55.7538 33.7312 55.9268 32.9902 55.5764 32.4264C55.2258 31.8622 54.485 31.6891 53.9211 32.0397L53.0135 32.6037C51.4293 30.1565 50.1168 27.8307 49.1853 25.8184C49.0507 25.4573 47.904 22.1465 50.1899 19.8607C50.6593 19.3913 50.6593 18.6302 50.1898 18.161C49.7205 17.6916 48.9594 17.6916 48.49 18.161C46.026 20.6252 46.2336 23.7654 46.6011 25.4812C45.1643 25.8891 42.462 26.5657 39.4264 26.8695C32.2253 27.5906 28.6863 25.7152 26.9864 24.0152C20.8096 17.8386 20.4091 11.6834 20.4059 11.6261C20.3823 11.1221 20.0465 10.6867 19.5652 10.5356C19.0836 10.3845 18.5595 10.55 18.2521 10.9502L0.248724 34.3879C0.0443255 34.6543 -0.0395223 34.9938 0.0175891 35.3246C0.0747006 35.6554 0.267551 35.9472 0.549469 36.1294C0.88581 36.347 34.3012 57.9446 43.7178 63.6619C51.3817 68.315 61.7978 70.5202 69.7728 70.52C72.181 70.52 74.3677 70.3188 76.1873 69.9231C76.4863 69.8582 76.7493 69.6817 76.9227 69.4295L80.659 63.9946C80.6615 63.9909 80.6632 63.9865 80.6659 63.9827C80.6949 63.9395 80.7211 63.8944 80.7444 63.8478C80.7488 63.8392 80.7524 63.8305 80.7566 63.8217C80.7771 63.7777 80.795 63.7326 80.8102 63.6861C80.8118 63.6815 80.8141 63.6771 80.8156 63.6725C80.8165 63.6692 80.8186 63.662 80.82 63.6576C80.8214 63.6525 80.823 63.6475 80.8244 63.6424C80.8988 63.3899 81.2508 62.0109 80.6809 60.224ZM28.7467 46.4199C37.9439 52.2996 44.238 56.272 47.4546 58.227C55.1184 62.8802 65.5345 65.0851 73.5094 65.0851C74.7784 65.0851 75.9834 65.0277 77.1081 64.9169L75.2164 67.6684C71.4718 68.3862 66.3227 68.2598 60.9841 67.3107C54.9435 66.2368 49.2545 64.2112 44.9654 61.6071C36.5453 56.4951 8.81908 38.6085 2.94926 34.8182L5.50899 31.4858C14.0774 37.0157 20.6984 41.2663 24.7848 43.8847C24.9856 44.0133 25.2099 44.0747 25.432 44.0747C25.828 44.0747 26.2156 43.8792 26.445 43.521C26.8032 42.9621 26.6405 42.2188 26.0815 41.8607C24.2714 40.7009 21.9631 39.2201 19.2094 37.4504C20.4674 35.1339 21.1283 32.5385 21.1283 29.8749C21.1283 26.1797 19.8321 22.5803 17.4788 19.7396C17.0552 19.2282 16.2974 19.1574 15.7864 19.5807C15.2754 20.0042 15.2042 20.762 15.6277 21.273C17.6247 23.6834 18.7245 26.7383 18.7245 29.8747C18.7245 32.0758 18.1922 34.2204 17.18 36.1456C14.2013 34.2299 10.7832 32.0286 6.97807 29.573L18.5212 14.5451C19.2562 17.2205 21.0278 21.4561 25.2862 25.7144C31.3999 31.8282 43.78 28.8157 47.443 27.7443C48.3763 29.6287 49.5853 31.7148 50.9795 33.8668L46.896 36.4034C46.332 36.7537 46.1589 37.4947 46.5093 38.0586C46.737 38.4251 47.1296 38.6264 47.5315 38.6264C47.7482 38.6264 47.9672 38.5678 48.1646 38.4452L52.3155 35.8667C52.9093 36.7297 53.5277 37.5963 54.1653 38.4583L50.92 40.5677C50.3635 40.9295 50.2056 41.674 50.5674 42.2305C50.7977 42.5849 51.183 42.7776 51.5763 42.7776C51.8007 42.7776 52.0279 42.7148 52.2301 42.5832L55.6225 40.3781C56.1607 41.0689 56.7088 41.7518 57.2635 42.4235L54.2458 44.2766C53.6802 44.6238 53.5032 45.3641 53.8504 45.9297C54.0773 46.2992 54.4719 46.5028 54.8757 46.5028C55.0903 46.5028 55.3073 46.4454 55.5037 46.325L58.8386 44.2772C65.4132 51.8124 70.5407 55.1344 73.7342 56.5941C78.0872 58.5842 78.6175 61.1167 78.5999 62.2972C74.8878 62.9419 69.8938 62.7952 64.7209 61.8756C58.6802 60.8017 52.9912 58.7761 48.7026 56.1724C45.5017 54.2273 39.2233 50.2646 30.0414 44.3948C29.482 44.0372 28.7391 44.2006 28.3814 44.7601C28.024 45.3193 28.1875 46.0624 28.7467 46.4199Z" fill="#FEFCFC"/>
</g>
<defs>
<clipPath id="clip0">
<rect width="81" height="81" fill="white"/>
</clipPath>
</defs>
</svg>
