<svg width="47" height="41" viewBox="0 0 47 41" fill="none" xmlns="http://www.w3.org/2000/svg">
<g clip-path="url(#clip0)">
<path d="M46.1304 9.16593C45.801 8.79881 45.296 8.58468 44.7609 8.58468H10.0678L8.25 3C8.06273 2.3183 8.30476 2.25 7.5 2.25H1.7394C0.778698 2.24992 0 2.39503 0 3.23177C0 4.06851 0.778698 4.74673 1.7394 4.74673H6.10652L11.7596 25.3483C11.9468 26.0306 12.6467 26.5113 13.4515 26.5113H40.5283C41.3279 26.5113 42.0248 26.0366 42.2167 25.3609L46.4493 10.4637C46.5774 10.0113 46.4597 9.53304 46.1304 9.16593ZM39.75 24H27H14.25L10.7368 11.25H43.5L39.75 24Z" fill="white"/>
<circle cx="15.75" cy="33.75" r="4.5" stroke="#FFFCFC" stroke-width="1.5"/>
<circle cx="36.75" cy="33.75" r="4.5" stroke="#FFFCFC" stroke-width="1.5"/>
</g>
<defs>
<clipPath id="clip0">
<rect width="46.5" height="40.5" fill="white"/>
</clipPath>
</defs>
</svg>
