<svg width="50" height="64" viewBox="0 0 50 64" fill="none" xmlns="http://www.w3.org/2000/svg">
<path d="M6.90698 40.3164L36 0L20.7209 27.6767L32.6512 23.754L0 63.4167L20.7209 32.2532L6.90698 40.3164Z" fill="#3A3937"/>
<path d="M31.6102 15.5276C31.334 15.5276 31.1102 15.7514 31.1102 16.0276C31.1102 16.3037 31.334 16.5276 31.6102 16.5276V15.5276ZM22 48.5276C21.7239 48.5276 21.5 48.7514 21.5 49.0276C21.5 49.3037 21.7239 49.5276 22 49.5276V48.5276ZM31.6102 16.5276H46V15.5276H31.6102V16.5276ZM48.5 19.0276V46.0276H49.5V19.0276H48.5ZM46 48.5276H22V49.5276H46V48.5276ZM48.5 46.0276C48.5 47.4083 47.3807 48.5276 46 48.5276V49.5276C47.933 49.5276 49.5 47.9606 49.5 46.0276H48.5ZM46 16.5276C47.3807 16.5276 48.5 17.6469 48.5 19.0276H49.5C49.5 17.0946 47.933 15.5276 46 15.5276V16.5276Z" fill="#151515"/>
</svg>
