<svg width="18" height="17" viewBox="0 0 18 17" fill="none" xmlns="http://www.w3.org/2000/svg">
<path d="M9 1.49605L10.5919 5.98522L10.7089 6.31511L11.0589 6.31809L15.991 6.36003L12.0517 9.11463L11.7458 9.32852L11.8639 9.68259L13.3511 14.1417L9.27924 11.4002L9 11.2122L8.72076 11.4002L4.64889 14.1417L6.13611 9.68259L6.2542 9.32852L5.94832 9.11463L2.009 6.36003L6.94113 6.31809L7.29114 6.31511L7.40812 5.98522L9 1.49605Z" stroke="#F0F0F0"/>
<mask id="mask0" mask-type="alpha" maskUnits="userSpaceOnUse" x="0" y="0" width="18" height="16">
<path d="M9 0L11.0631 5.81811L17.5595 5.87336L12.3382 9.52439L14.2901 15.3766L9 11.815L3.70993 15.3766L5.66179 9.52439L0.440492 5.87336L6.93687 5.81811L9 0Z" fill="#C4C4C4"/>
<path d="M9 0L11.0631 5.81811L17.5595 5.87336L12.3382 9.52439L14.2901 15.3766L9 11.815L3.70993 15.3766L5.66179 9.52439L0.440492 5.87336L6.93687 5.81811L9 0Z" stroke="black"/>
</mask>
<g mask="url(#mask0)">
<rect y="-2" width="9" height="20" fill="#F0F0F0"/>
</g>
</svg>
