<svg width="32" height="32" viewBox="0 0 32 32" fill="none" xmlns="http://www.w3.org/2000/svg">
<path d="M29.6735 0.214355H2.65587C1.39828 0.214355 0.378906 1.23372 0.378906 2.49132V29.5089C0.378906 30.7665 1.39828 31.7859 2.65587 31.7859H29.6735C30.9311 31.7859 31.9504 30.7665 31.9504 29.5089V2.49132C31.9504 1.23372 30.9311 0.214355 29.6735 0.214355V0.214355ZM23.3723 12.5224C23.3793 12.6778 23.3826 12.8339 23.3826 12.9907C23.3826 17.7785 19.7382 23.2995 13.0736 23.2997H13.0738H13.0736C11.0274 23.2997 9.12327 22.7 7.51979 21.6722C7.80329 21.7056 8.09186 21.7223 8.38404 21.7223C10.0817 21.7223 11.644 21.1432 12.8842 20.1713C11.2981 20.1419 9.96078 19.0944 9.49927 17.6547C9.72015 17.6971 9.94729 17.7202 10.1802 17.7202C10.5109 17.7202 10.8313 17.6756 11.1358 17.5925C9.47783 17.2606 8.22891 15.7954 8.22891 14.0409C8.22891 14.0245 8.22891 14.0098 8.2294 13.9946C8.71764 14.2661 9.27598 14.4294 9.87045 14.4477C8.89757 13.7986 8.25806 12.6889 8.25806 11.4317C8.25806 10.7679 8.43751 10.146 8.74871 9.61052C10.5355 11.8029 13.2058 13.2448 16.2172 13.3963C16.155 13.1309 16.123 12.8543 16.123 12.5701C16.123 10.5699 17.7458 8.94716 19.7467 8.94716C20.7889 8.94716 21.7303 9.38771 22.3914 10.092C23.2169 9.92919 23.992 9.62762 24.6922 9.2126C24.4213 10.0583 23.847 10.7679 23.0989 11.2167C23.8319 11.129 24.5304 10.9346 25.1795 10.646C24.6947 11.3727 24.0797 12.011 23.3723 12.5224Z" fill="white"/>
</svg>
