<svg width="45" height="45" viewBox="0 0 45 45" fill="none" xmlns="http://www.w3.org/2000/svg">
<path d="M22.7223 6.24053L22.6587 6.24036C22.6578 6.24036 22.6571 6.24036 22.6563 6.24036C22.172 6.24036 21.7787 6.63226 21.7773 7.11689C21.7773 7.11759 21.7773 7.1183 21.7773 7.119C21.7772 7.60345 22.1692 7.99685 22.6539 7.99817L22.7176 7.99834C22.7184 7.99834 22.7192 7.99834 22.72 7.99834C23.2042 7.99834 23.5976 7.60644 23.5989 7.12181C23.5989 7.12111 23.5989 7.1204 23.5989 7.1197C23.5991 6.63525 23.2071 6.24185 22.7223 6.24053Z" fill="white"/>
<path d="M44.0676 11.699C43.4905 9.50479 41.7881 7.77677 39.6254 7.18931C37.3952 6.58189 31.1774 6.35821 26.3539 6.27762C25.8714 6.27103 25.4685 6.65643 25.4604 7.14176C25.4523 7.62709 25.8392 8.02717 26.3246 8.03525C33.0007 8.14688 37.5603 8.44878 39.1641 8.88551C40.7224 9.30879 41.9499 10.5582 42.3677 12.1466C43.2316 15.4234 43.2422 22.4295 43.2422 22.4999C43.2422 22.5703 43.2316 29.5764 42.3676 32.8537C41.9499 34.4416 40.7224 35.691 39.1635 36.1145C35.9425 36.9916 22.634 37.0019 22.5 37.0019C22.366 37.0019 9.05748 36.9915 5.83594 36.1143C4.27764 35.691 3.05007 34.4416 2.63232 32.8532C1.76836 29.5764 1.75781 22.5703 1.75781 22.4999C1.75781 22.4295 1.76836 15.4234 2.63241 12.1462C3.05007 10.5582 4.27764 9.30888 5.83646 8.88542C7.47536 8.43911 12.1698 8.1351 19.0551 8.02919C19.5405 8.02181 19.9278 7.62226 19.9204 7.13692C19.9129 6.65159 19.5122 6.26742 19.0281 6.27164C14.0562 6.34802 7.65158 6.56933 5.37513 7.18922C3.21187 7.77677 1.50952 9.50487 0.932607 11.6985C0.0106348 15.1955 0 22.2033 0 22.4999C0 22.7966 0.0106348 29.8044 0.932432 33.3008C1.50952 35.495 3.21187 37.223 5.3746 37.8105C8.82062 38.7489 21.9431 38.7597 22.5 38.7597C23.0569 38.7597 36.1794 38.7489 39.6249 37.8107C41.7881 37.2231 43.4905 35.495 44.0674 33.3014C44.9894 29.8044 45 22.7966 45 22.4999C45 22.2033 44.9894 15.1955 44.0676 11.699Z" fill="white"/>
<path d="M5.09766 20.1727C4.61224 20.1727 4.21875 20.5662 4.21875 21.0516V28.2147C4.21875 28.7001 4.61224 29.0936 5.09766 29.0936C5.58308 29.0936 5.97656 28.7001 5.97656 28.2147V21.0516C5.97656 20.5662 5.58308 20.1727 5.09766 20.1727Z" fill="white"/>
<path d="M5.09766 16.1737C4.61224 16.1737 4.21875 16.5672 4.21875 17.0526V17.063C4.21875 17.5484 4.61224 17.9419 5.09766 17.9419C5.58308 17.9419 5.97656 17.5484 5.97656 17.063V17.0526C5.97656 16.5672 5.58308 16.1737 5.09766 16.1737Z" fill="white"/>
<path d="M29.6284 21.8735L18.73 15.5454C18.458 15.3875 18.1225 15.3869 17.8501 15.5437C17.5776 15.7006 17.4097 15.9911 17.4097 16.3055V28.9617C17.4097 29.2762 17.5776 29.5666 17.8501 29.7235C17.9858 29.8016 18.1371 29.8406 18.2886 29.8406C18.4411 29.8406 18.5936 29.8011 18.73 29.7218L29.6284 23.3937C29.8994 23.2364 30.066 22.9469 30.066 22.6336C30.066 22.3204 29.8993 22.0309 29.6284 21.8735ZM19.1675 27.4351V17.8321L27.4367 22.6336L19.1675 27.4351Z" fill="white"/>
</svg>
