<svg width="13" height="28" viewBox="0 0 13 28" fill="none" xmlns="http://www.w3.org/2000/svg">
<path fill-rule="evenodd" clip-rule="evenodd" d="M3.9716 21.6877C2.92657 19.6953 0.691811 14.6646 0.113024 10.4807C-0.465763 6.29675 1.31883 2.92635 2.28347 1.76415C2.7658 1.26606 4.21278 0.220074 6.14207 0.0208392C8.07136 -0.178396 9.83988 1.10003 10.483 1.76415C11.528 3.0924 13.4734 6.69526 12.8946 10.4807C12.3158 14.2661 10.5634 19.5293 9.75949 21.6877L7.10672 27.9137L3.9716 21.6877ZM6.38326 9.98254C7.98154 9.98254 9.2772 8.64453 9.2772 6.99401C9.2772 5.34349 7.98154 4.00548 6.38326 4.00548C4.78499 4.00548 3.48933 5.34349 3.48933 6.99401C3.48933 8.64453 4.78499 9.98254 6.38326 9.98254Z" fill="white"/>
</svg>
