<svg width="39" height="38" viewBox="0 0 39 38" fill="none" xmlns="http://www.w3.org/2000/svg">
<g clip-path="url(#clip0)">
<path d="M31.4287 25.27L25.7425 24.175C25.1393 24.06 24.6999 23.545 24.6999 22.95V21.695C25.0743 21.195 25.4253 20.5275 25.7893 19.83C26.0675 19.3025 26.4861 18.5075 26.6733 18.32C27.7757 17.2825 28.9509 15.995 29.3097 14.3175C29.6347 12.7975 29.3097 12.0075 28.9327 11.3825C28.9327 10.16 28.9327 7.9225 28.4907 6.31C28.4465 4.3625 28.0747 3.2625 27.1413 2.2825C26.4809 1.5975 25.5085 1.4375 24.7285 1.31C24.4191 1.26 23.9953 1.19 23.8471 1.1125C22.4977 0.395 21.1275 0.04 19.4505 0C16.0185 0.125 11.8065 2.2175 10.3973 5.98C9.96833 7.1225 10.0099 8.9975 10.0411 10.505L10.0047 11.3825C9.67453 12.0075 9.34953 12.7975 9.67713 14.315C10.0359 16 11.2111 17.285 12.3083 18.3175C12.4981 18.5075 12.9219 19.3075 13.2027 19.835C13.5719 20.53 13.9255 21.1975 14.2999 21.6975V22.95C14.2999 23.545 13.8605 24.06 13.2547 24.175L7.56853 25.27C3.93633 25.9675 1.29993 29.06 1.29993 32.6225V35C1.29993 36.3775 2.46733 37.5 3.89993 37.5H35.0999C36.5325 37.5 37.6999 36.3775 37.6999 35V32.6225C37.6999 29.06 35.0635 25.9675 31.4287 25.27ZM35.0999 35H3.89993V32.6225C3.89993 30.2475 5.65753 28.185 8.08073 27.72L13.7643 26.625C15.5817 26.28 16.8999 24.7325 16.8999 22.95V21.25C16.8999 20.915 16.7595 20.5925 16.5125 20.36C16.2889 20.15 15.8079 19.24 15.5193 18.6975C15.0305 17.7775 14.6093 16.9825 14.1283 16.5325C13.2651 15.7225 12.4409 14.8325 12.2225 13.8125C12.0535 13.0225 12.1705 12.8 12.3213 12.5175C12.4539 12.2675 12.6515 11.8925 12.6515 11.3825L12.6385 10.455C12.6151 9.3625 12.5761 7.5325 12.8413 6.8275C13.8501 4.1375 17.0507 2.59 19.4661 2.5C20.6569 2.53 21.5929 2.7675 22.5861 3.3C23.1217 3.585 23.7457 3.685 24.2943 3.775C24.6037 3.825 25.1211 3.91 25.2277 3.975C25.5787 4.3425 25.8699 4.785 25.8907 6.505C25.8907 6.6175 25.9089 6.73 25.9427 6.84C26.3301 8.1175 26.3301 10.3225 26.3301 11.3825C26.3301 11.8925 26.5303 12.2675 26.6603 12.5175C26.8111 12.8 26.9281 13.0225 26.7591 13.815C26.5433 14.83 25.7139 15.7225 24.8533 16.5325C24.3697 16.9875 23.9511 17.7825 23.4675 18.705C23.1867 19.245 22.7109 20.15 22.4899 20.3575C22.2403 20.5925 22.0999 20.915 22.0999 21.25V22.95C22.0999 24.7325 23.4181 26.28 25.2355 26.6275L30.9217 27.7225C33.3423 28.185 35.0999 30.2475 35.0999 32.6225V35Z" fill="white"/>
</g>
<defs>
<clipPath id="clip0">
<rect width="39" height="37.5" fill="white"/>
</clipPath>
</defs>
</svg>
