<svg width="30" height="30" viewBox="0 0 30 30" fill="none" xmlns="http://www.w3.org/2000/svg">
<path d="M29.7377 8.72407L21.6127 0.28667C21.3477 0.0117862 20.9414 -0.0745013 20.5878 0.0678616C20.2328 0.211598 20.0003 0.555374 20.0003 0.937832V5.00044H19.6879C12.968 5.00044 7.50049 10.4679 7.50049 17.1878V19.0628C7.50049 19.4977 7.80673 19.8602 8.23038 19.9591C8.29928 19.9765 8.36794 19.984 8.4366 19.984C8.79045 19.984 9.12919 19.7764 9.29284 19.4503C11.0504 15.934 14.5841 13.7503 18.5153 13.7503H20.0003V17.8126C20.0003 18.1953 20.2328 18.5391 20.5878 18.6815C20.9391 18.8252 21.3477 18.7378 21.6127 18.4627L29.7377 10.0253C30.0877 9.66156 30.0877 9.08914 29.7377 8.72407Z" fill="url(#paint0_linear)"/>
<path d="M26.2502 29.9999H3.75044C1.68298 29.9999 0.000488281 28.3177 0.000488281 26.25V8.75032C0.000488281 6.68286 1.68298 5.00037 3.75044 5.00037H7.5004C8.19161 5.00037 8.75031 5.55906 8.75031 6.25028C8.75031 6.94149 8.19161 7.50019 7.5004 7.50019H3.75044C3.06037 7.50019 2.50031 8.06025 2.50031 8.75032V26.25C2.50031 26.94 3.06037 27.5001 3.75044 27.5001H26.2502C26.94 27.5001 27.5001 26.94 27.5001 26.25V16.2502C27.5001 15.559 28.0588 15.0001 28.75 15.0001C29.4414 15.0001 30.0001 15.559 30.0001 16.2502V26.25C30.0001 28.3177 28.3176 29.9999 26.2502 29.9999Z" fill="url(#paint1_linear)"/>
<defs>
<linearGradient id="paint0_linear" x1="18.7503" y1="0.00012207" x2="18.7503" y2="19.984" gradientUnits="userSpaceOnUse">
<stop stop-color="#8B8B8B"/>
<stop offset="1" stop-color="#0B090A"/>
</linearGradient>
<linearGradient id="paint1_linear" x1="15.0003" y1="5.00037" x2="15.0003" y2="29.9999" gradientUnits="userSpaceOnUse">
<stop stop-color="#8B8B8B"/>
<stop offset="1" stop-color="#0B090A"/>
</linearGradient>
</defs>
</svg>
