<svg width="50" height="64" viewBox="0 0 50 64" fill="none" xmlns="http://www.w3.org/2000/svg">
<path d="M6.90698 40.3164L36 0L20.7209 27.6767L32.6512 23.754L0 63.4167L20.7209 32.2532L6.90698 40.3164Z" fill="#3A3937"/>
<path d="M31.6102 15.5275C31.334 15.5275 31.1102 15.7514 31.1102 16.0275C31.1102 16.3037 31.334 16.5275 31.6102 16.5275V15.5275ZM22 48.5275C21.7239 48.5275 21.5 48.7514 21.5 49.0275C21.5 49.3037 21.7239 49.5275 22 49.5275V48.5275ZM31.6102 16.5275H46V15.5275H31.6102V16.5275ZM48.5 19.0275V46.0275H49.5V19.0275H48.5ZM46 48.5275H22V49.5275H46V48.5275ZM48.5 46.0275C48.5 47.4082 47.3807 48.5275 46 48.5275V49.5275C47.933 49.5275 49.5 47.9605 49.5 46.0275H48.5ZM46 16.5275C47.3807 16.5275 48.5 17.6468 48.5 19.0275H49.5C49.5 17.0945 47.933 15.5275 46 15.5275V16.5275Z" fill="#151515"/>
</svg>
